<svg width="77" height="73" viewBox="0 0 77 73" fill="none" xmlns="http://www.w3.org/2000/svg">
<path d="M76.222 36.7095L67.8179 27.0999L68.989 14.3904L56.555 11.5661L50.0453 0.544312L38.3346 5.573L26.624 0.544312L20.1143 11.5316L7.68031 14.3215L8.85137 27.0655L0.447266 36.7095L8.85137 46.3191L7.68031 59.0631L20.1143 61.8874L26.624 72.8747L38.3346 67.8116L50.0453 72.8403L56.555 61.853L68.989 59.0286L67.8179 46.3191L76.222 36.7095ZM29.3106 50.5212L21.1131 42.2549C19.7698 40.9116 19.7698 38.7417 21.1131 37.3984L21.3542 37.1573C22.6975 35.814 24.9018 35.814 26.2451 37.1573L31.7905 42.7371L49.5286 24.9644C50.8719 23.6212 53.0763 23.6212 54.4195 24.9644L54.6606 25.2055C56.0039 26.5488 56.0039 28.7187 54.6606 30.062L34.2704 50.5212C32.8582 51.8645 30.6883 51.8645 29.3106 50.5212Z" fill="white"/>
</svg>
