<svg width="63" height="75" viewBox="0 0 63 75" fill="none" xmlns="http://www.w3.org/2000/svg">
<path d="M62.8668 69.6997V29.3356C62.8668 27.8582 62.2428 26.4336 61.1508 25.4311L35.1496 1.68753C34.1616 0.737783 32.9135 0.315674 31.6655 0.315674C30.4174 0.315674 29.1694 0.790547 28.1813 1.68753L2.18019 25.4311C1.08814 26.3809 0.464111 27.8055 0.464111 29.3356V69.6997C0.464111 72.6017 2.80421 74.9761 5.66434 74.9761H16.0648C18.9249 74.9761 21.265 72.6017 21.265 69.6997V48.5943H42.0659V69.6997C42.0659 72.6017 44.406 74.9761 47.2662 74.9761H57.6666C60.5267 74.9761 62.8668 72.6017 62.8668 69.6997Z" fill="white"/>
</svg>
