<svg width="80" height="79" viewBox="0 0 80 79" fill="none" xmlns="http://www.w3.org/2000/svg">
<g clip-path="url(#clip0)">
<path d="M40.2926 10.4305C33.7598 3.89774 23.9768 2.56518 16.1115 6.40034L27.9095 18.1984C29.1771 19.4659 29.1771 21.5135 27.9095 22.7811L22.7418 27.9488C21.4742 29.2488 19.4267 29.2488 18.1591 27.9488L6.36108 16.1508C2.55841 24.0486 3.89097 33.7665 10.4238 40.2993C16.469 46.3446 25.3094 47.9372 32.8172 45.1095L58.6884 70.9807C62.036 74.3283 67.4313 74.3283 70.7464 70.9807C74.094 67.633 74.094 62.2378 70.7464 58.9226L45.0053 33.149C47.9954 25.5437 46.4353 16.5733 40.2926 10.4305Z" fill="white"/>
</g>
<defs>
<clipPath id="clip0">
<rect width="78.0034" height="78.0034" fill="white" transform="translate(0.998291 0.972656)"/>
</clipPath>
</defs>
</svg>
